# Blender v2.77 (sub 0) OBJ File: ''
# www.blender.org
mtllib rocketlauncher_shell.mtl
o rocketlauncher_shell
v 0.000000 0.638827 4.864056
v 0.000000 0.638827 5.301268
v -0.452700 0.451729 4.864056
v -0.452700 0.451729 5.301268
v 0.000000 -0.638826 6.450089
v 0.603000 -1.308387 6.450089
v 0.500750 -1.350646 6.450089
v 0.442050 0.441102 0.710215
v 0.760300 -0.000000 0.809846
v 0.537600 0.536447 0.809846
v 0.000000 -1.156663 -1.315023
v 0.819650 -0.817892 -2.582047
v 0.000000 -1.156663 -2.582047
v 0.819650 -0.817892 -1.315023
v 0.452700 0.451729 6.450089
v 0.000000 0.638827 6.450089
v 0.452700 0.451729 5.301268
v -0.452700 0.451729 6.450089
v -0.640200 -0.000000 6.450089
v -0.640200 -0.000000 5.301268
v -0.452700 -0.451729 6.450089
v 0.000000 -0.638826 5.301268
v -0.452700 -0.451729 5.301268
v 0.452700 -0.451729 6.450089
v 0.640200 -0.000000 6.450089
v 0.640200 -0.000000 5.301268
v 0.452700 -0.451729 5.301268
v 0.452700 -0.451729 4.864105
v 0.000000 -0.638826 4.864105
v 0.640200 -0.000000 4.864105
v 0.452700 0.451729 4.864056
v -0.452700 -0.451729 4.864056
v -0.640200 -0.000000 4.864056
v 0.000000 -0.000000 6.450089
v -0.500750 1.350646 6.450089
v -0.603000 1.308387 6.450089
v -0.603000 1.308387 5.681221
v -0.500750 1.350646 5.681221
v -1.353550 -0.499675 6.450089
v -1.311200 -0.601706 6.450089
v -1.311200 -0.601706 5.681221
v -1.353550 -0.499675 5.681221
v 0.603000 -1.308387 5.681221
v 0.500750 -1.350646 5.681221
v 1.353550 0.499676 6.450089
v 1.311200 0.601707 6.450089
v 1.311200 0.601707 5.681221
v 1.353550 0.499676 5.681221
v 0.625150 -0.000000 0.710215
v 0.760300 -0.000000 4.779660
v 0.537600 0.536447 4.779660
v 0.537600 -0.536447 0.809846
v 0.442050 -0.441102 0.710215
v 0.537600 -0.536446 4.779660
v 0.000000 -0.758669 0.809846
v 0.000000 -0.623809 0.710215
v 0.000000 -0.758669 4.779660
v -0.537600 -0.536447 0.809846
v -0.442050 -0.441102 0.710215
v -0.537600 -0.536446 4.779660
v -0.760300 -0.000000 0.809846
v -0.625150 -0.000000 0.710215
v -0.760300 -0.000000 4.779660
v -0.537600 0.536447 0.809846
v -0.442050 0.441102 0.710215
v -0.537600 0.536447 4.779660
v 0.000000 0.758669 0.809846
v 0.000000 0.623809 0.710215
v 0.000000 0.758669 4.779660
v 0.442050 -0.441102 -0.318860
v 0.000000 -0.623809 -0.318860
v 0.625150 0.000000 -0.318860
v 0.442050 0.441102 -0.318860
v 0.000000 0.623809 -0.318860
v -0.442050 -0.441102 -0.318860
v -0.625150 0.000000 -0.318860
v -0.442050 0.441102 -0.318860
v 1.159150 0.000000 -2.582047
v 1.159150 0.000000 -1.315023
v 0.819650 0.817891 -2.582047
v 0.819650 0.817892 -1.315023
v 0.000000 1.156663 -2.582047
v 0.000000 1.156663 -1.315023
v -0.819650 0.817892 -1.315023
v -0.819650 0.817891 -2.582047
v -1.159150 0.000000 -1.315023
v -1.159150 0.000000 -2.582047
v -0.819650 -0.817892 -1.315023
v -0.819650 -0.817892 -2.582047
v 0.167800 0.167440 -6.450089
v 0.000000 0.236791 -6.450089
v 0.000000 0.000000 -6.450089
v -0.167800 0.167440 -6.450089
v 0.000000 -0.236791 -6.450089
v 0.167800 -0.167440 -6.450089
v 0.237300 0.000000 -6.450089
v -0.167800 -0.167440 -6.450089
v -0.237300 0.000000 -6.450089
vt 0.6758 0.3325
vt 0.6929 0.3325
vt 0.6758 0.3408
vt 0.6929 0.3408
vt 0.9023 0.2754
vt 0.8789 0.3398
vt 0.8887 0.3398
vt 0.2585 0.2974
vt 0.2461 0.2944
vt 0.2585 0.2944
vt 0.5845 0.8367
vt 0.5103 0.8568
vt 0.5103 0.8367
vt 0.5845 0.8568
vt 0.7334 0.3237
vt 0.7334 0.3325
vt 0.6929 0.3237
vt 0.7334 0.3408
vt 0.7334 0.3491
vt 0.6929 0.3491
vt 0.7334 0.3579
vt 0.7334 0.3662
vt 0.6929 0.3662
vt 0.6929 0.3579
vt 0.7334 0.3071
vt 0.7334 0.3154
vt 0.6929 0.3154
vt 0.6929 0.3071
vt 0.6929 0.2983
vt 0.6758 0.3071
vt 0.6758 0.2983
vt 0.6758 0.3154
vt 0.6758 0.3237
vt 0.6758 0.3662
vt 0.6758 0.3579
vt 0.6758 0.3491
vt 0.7178 0.0435
vt 0.7773 0.0684
vt 0.7178 0.1250
vt 0.6577 0.0684
vt 0.6333 0.1284
vt 0.6577 0.1880
vt 0.7178 0.2129
vt 0.7773 0.1880
vt 0.8022 0.1284
vt 0.8540 0.2842
vt 0.8354 0.2842
vt 0.8354 0.3325
vt 0.8540 0.3325
vt 0.8354 0.2842
vt 0.8540 0.2842
vt 0.8540 0.3325
vt 0.8354 0.3325
vt 0.8354 0.2842
vt 0.8540 0.2842
vt 0.8540 0.3325
vt 0.8354 0.3325
vt 0.8354 0.2842
vt 0.8540 0.2842
vt 0.8540 0.3325
vt 0.8354 0.3325
vt 0.9023 0.2754
vt 0.8652 0.2754
vt 0.8789 0.3398
vt 0.8887 0.3398
vt 0.7744 0.2842
vt 0.7744 0.3564
vt 0.7983 0.2783
vt 0.8198 0.2788
vt 0.8179 0.3154
vt 0.7993 0.3154
vt 0.9146 0.3564
vt 0.9146 0.2842
vt 0.9023 0.2754
vt 0.8652 0.2754
vt 0.8789 0.3398
vt 0.8887 0.3398
vt 0.9146 0.2842
vt 0.9146 0.3564
vt 0.7983 0.2783
vt 0.8198 0.2788
vt 0.8179 0.3154
vt 0.7993 0.3154
vt 0.7744 0.3564
vt 0.7744 0.2842
vt 0.8652 0.2754
vt 0.9146 0.2842
vt 0.9146 0.3564
vt 0.7983 0.2783
vt 0.8198 0.2788
vt 0.8179 0.3154
vt 0.7993 0.3154
vt 0.7744 0.3564
vt 0.7744 0.2842
vt 0.9023 0.2754
vt 0.8652 0.2754
vt 0.8789 0.3398
vt 0.8887 0.3398
vt 0.9146 0.2842
vt 0.9146 0.3564
vt 0.7983 0.2783
vt 0.8198 0.2788
vt 0.8179 0.3154
vt 0.7993 0.3154
vt 0.7744 0.3564
vt 0.7744 0.2842
vt 0.2461 0.2974
vt 0.2461 0.2427
vt 0.2585 0.2427
vt 0.2338 0.2944
vt 0.2339 0.2974
vt 0.2338 0.2427
vt 0.2224 0.2944
vt 0.2224 0.2974
vt 0.2224 0.2427
vt 0.3076 0.2944
vt 0.3198 0.2974
vt 0.3076 0.2974
vt 0.3198 0.2944
vt 0.3076 0.2427
vt 0.3198 0.2427
vt 0.2954 0.2944
vt 0.2954 0.2974
vt 0.2954 0.2427
vt 0.2830 0.2944
vt 0.2830 0.2974
vt 0.2830 0.2427
vt 0.2708 0.2944
vt 0.2708 0.2974
vt 0.2708 0.2427
vt 0.2585 0.2402
vt 0.2708 0.2402
vt 0.2461 0.2402
vt 0.2338 0.2402
vt 0.2224 0.2402
vt 0.3076 0.2402
vt 0.3198 0.2402
vt 0.2954 0.2402
vt 0.2830 0.2402
vt 0.2474 0.2324
vt 0.2271 0.2402
vt 0.2271 0.2324
vt 0.2474 0.2402
vt 0.2271 0.2480
vt 0.2474 0.2480
vt 0.2271 0.2563
vt 0.2474 0.2563
vt 0.2271 0.2642
vt 0.2474 0.2642
vt 0.2474 0.2876
vt 0.2474 0.2954
vt 0.2271 0.2954
vt 0.2271 0.2876
vt 0.2474 0.2798
vt 0.2271 0.2798
vt 0.2474 0.2720
vt 0.2271 0.2720
vt 0.5103 0.8770
vt 0.5845 0.8770
vt 0.5103 0.8972
vt 0.5845 0.8972
vt 0.5103 0.9174
vt 0.5845 0.9174
vt 0.5845 0.9375
vt 0.5103 0.9375
vt 0.5845 0.9577
vt 0.5103 0.9577
vt 0.5845 0.9778
vt 0.5103 0.9778
vt 0.5845 0.9980
vt 0.5103 0.9980
vt 0.3987 0.9110
vt 0.3987 0.9179
vt 0.4163 0.9179
vt 0.3987 0.9248
vt 0.3987 0.8911
vt 0.3987 0.8975
vt 0.3987 0.9042
vt 0.6260 0.8788
vt 0.6260 0.8979
vt 0.6260 0.8606
vt 0.6260 0.8435
vt 0.6260 0.9174
vt 0.6260 0.9368
vt 0.3987 0.9449
vt 0.3987 0.9384
vt 0.3987 0.9316
vt 0.6260 0.9557
vt 0.6260 0.9737
vt 0.6260 0.9905
vn 0.0307 -0.8315 -0.5547
vn -0.1736 -0.9442 0.2799
vn 0.6090 -0.5668 -0.5549
vn 0.8438 -0.5294 0.0885
vn 0.4704 0.5880 -0.6580
vn -0.7632 0.4196 -0.4915
vn 0.2020 0.6945 -0.6905
vn -0.6142 -0.5725 0.5431
vn -0.9238 -0.0161 0.3825
vn -0.6415 -0.6651 0.3823
vn 0.0001 0.9622 -0.2724
vn -0.7031 0.7024 0.1110
vn 0.0000 0.9967 0.0813
vn -0.6859 0.6934 -0.2208
vn -0.0570 -0.5177 -0.8537
vn -0.4705 -0.5879 -0.6580
vn -0.5282 -0.8446 0.0881
vn 0.5173 -0.0570 -0.8539
vn 0.5871 -0.4714 -0.6581
vn 0.9439 -0.1742 0.2805
vn 0.0570 0.5177 -0.8537
vn 0.1736 0.9442 0.2799
vn 0.5282 0.8446 0.0881
vn -0.5173 0.0570 -0.8539
vn -0.5871 0.4714 -0.6581
vn -0.9439 0.1742 0.2805
vn -0.8438 0.5294 0.0885
vn -0.6091 0.5668 -0.5547
vn -0.0306 0.8317 -0.5544
vn -0.8312 -0.0307 -0.5552
vn -0.5655 -0.6101 -0.5550
vn 0.5655 0.6101 -0.5550
vn 0.8310 0.0307 -0.5554
vn -0.0000 0.0000 -1.0000
vn -0.2018 -0.6946 -0.6905
vn 0.7632 -0.4195 -0.4915
vn 0.7290 -0.4492 0.5164
vn -0.2755 -0.9048 0.3248
vn 0.6947 -0.2022 -0.6903
vn 0.4192 0.7633 -0.4916
vn 0.4488 0.7291 0.5167
vn 0.9046 -0.2758 0.3250
vn -0.7290 0.4492 0.5164
vn 0.2755 0.9048 0.3248
vn -0.6947 0.2022 -0.6903
vn -0.4192 -0.7633 -0.4916
vn -0.4488 -0.7291 0.5167
vn -0.9046 0.2758 0.3250
vn -0.8387 0.0304 0.5437
vn -0.9207 0.0168 -0.3899
vn -0.6626 -0.6396 -0.3898
vn -0.6642 0.6423 0.3823
vn -0.5712 0.6154 0.5431
vn -0.6387 0.6635 -0.3897
vn -0.0161 0.9240 0.3822
vn 0.0304 0.8393 0.5429
vn 0.0169 0.9209 -0.3895
vn 0.6415 0.6651 0.3823
vn 0.6141 0.5725 0.5432
vn 0.6626 0.6396 -0.3898
vn 0.9238 0.0161 0.3825
vn 0.8387 -0.0304 0.5437
vn 0.9207 -0.0168 -0.3900
vn 0.6642 -0.6423 0.3823
vn 0.5712 -0.6154 0.5431
vn 0.6387 -0.6634 -0.3898
vn 0.0161 -0.9240 0.3822
vn -0.0304 -0.8393 0.5429
vn -0.0168 -0.9208 -0.3897
vn -0.6849 0.6763 -0.2711
vn -0.0571 0.9697 -0.2377
vn -0.9625 -0.0069 -0.2714
vn -0.6751 -0.6861 -0.2711
vn 0.0805 -0.9455 -0.3155
vn 0.5853 0.7649 -0.2690
vn 0.9548 0.1260 -0.2693
vn 0.7639 -0.5866 -0.2690
vn -0.9938 -0.0012 0.1111
vn -0.9753 0.0047 -0.2209
vn -0.7014 -0.7041 0.1110
vn -0.6925 -0.6868 -0.2208
vn -0.0000 -0.9904 0.1381
vn -0.0000 -0.9859 -0.1675
vn 0.6925 -0.6868 -0.2208
vn 0.7014 -0.7041 0.1110
vn 0.9753 0.0047 -0.2209
vn 0.9938 -0.0012 0.1111
vn 0.6859 0.6934 -0.2208
vn 0.7031 0.7024 0.1110
vn -0.4506 -0.5232 0.7233
vn -0.0000 -0.6512 0.7589
vn -0.0000 0.0000 1.0000
vn 0.4506 -0.5233 0.7233
vn 0.0001 0.7484 0.6633
vn -0.5223 0.4514 0.7235
vn -0.6886 -0.0507 0.7233
vn 0.5224 0.4515 0.7233
vn 0.6887 -0.0507 0.7233
usemtl rocketlauncher_shell_rocket_launcher_d.dds
s 1
f 1/1/1 2/2/2 3/3/3
f 2/2/2 4/4/4 3/3/3
f 5/5/5 6/6/6 7/7/7
f 8/8/8 9/9/9 10/10/10
f 11/11/11 12/12/12 13/13/13
f 12/12/12 11/11/11 14/14/14
f 15/15/15 16/16/16 2/2/2
f 15/15/15 2/2/2 17/17/17
f 18/18/18 19/19/19 20/20/20
f 18/18/18 20/20/20 4/4/4
f 21/21/21 5/22/5 22/23/22
f 21/21/21 22/23/22 23/24/23
f 24/25/24 25/26/25 26/27/26
f 24/25/24 26/27/26 27/28/27
f 22/29/22 28/30/28 29/31/29
f 22/29/22 27/28/27 28/30/28
f 27/28/27 30/32/30 28/30/28
f 30/32/30 27/28/27 26/27/26
f 30/32/30 26/27/26 31/33/31
f 26/27/26 17/17/17 31/33/31
f 17/17/17 1/1/1 31/33/31
f 1/1/1 17/17/17 2/2/2
f 23/24/23 22/23/22 29/34/29
f 23/24/23 29/34/29 32/35/32
f 23/24/23 32/35/32 20/20/20
f 20/20/20 32/35/32 33/36/33
f 20/20/20 33/36/33 4/4/4
f 4/4/4 33/36/33 3/3/3
f 16/37/16 15/38/15 34/39/34
f 18/40/18 16/37/16 34/39/34
f 19/41/19 18/40/18 34/39/34
f 21/42/21 19/41/19 34/39/34
f 5/43/5 21/42/21 34/39/34
f 24/44/24 5/43/5 34/39/34
f 25/45/25 24/44/24 34/39/34
f 15/38/15 25/45/25 34/39/34
f 35/46/35 36/47/36 37/48/37
f 35/46/35 37/48/37 38/49/38
f 39/50/39 40/51/40 41/52/41
f 39/50/39 41/52/41 42/53/42
f 7/54/7 6/55/6 43/56/43
f 7/54/7 43/56/43 44/57/44
f 45/58/45 46/59/46 47/60/47
f 45/58/45 47/60/47 48/61/48
f 16/62/16 18/63/18 36/64/36
f 16/62/16 36/64/36 35/65/35
f 18/66/18 4/67/4 37/48/37
f 18/66/18 37/48/37 36/47/36
f 4/68/4 2/69/2 38/70/38
f 4/68/4 38/70/38 37/71/37
f 2/72/2 16/73/16 35/46/35
f 2/72/2 35/46/35 38/49/38
f 19/74/19 21/75/21 40/76/40
f 19/74/19 40/76/40 39/77/39
f 21/78/21 23/79/23 41/52/41
f 21/78/21 41/52/41 40/51/40
f 23/80/23 20/81/20 42/82/42
f 23/80/23 42/82/42 41/83/41
f 20/84/20 19/85/19 39/50/39
f 20/84/20 39/50/39 42/53/42
f 5/5/5 24/86/24 6/6/6
f 24/87/24 27/88/27 43/56/43
f 24/87/24 43/56/43 6/55/6
f 27/89/27 22/90/22 44/91/44
f 27/89/27 44/91/44 43/92/43
f 22/93/22 5/94/5 7/54/7
f 22/93/22 7/54/7 44/57/44
f 25/95/25 15/96/15 46/97/46
f 25/95/25 46/97/46 45/98/45
f 15/99/15 17/100/17 47/60/47
f 15/99/15 47/60/47 46/59/46
f 17/101/17 26/102/26 48/103/48
f 17/101/17 48/103/48 47/104/47
f 26/105/26 25/106/25 45/58/45
f 26/105/26 45/58/45 48/61/48
f 9/9/9 8/8/8 49/107/49
f 10/10/10 9/9/9 50/108/50
f 10/10/10 50/108/50 51/109/51
f 52/110/52 49/107/49 53/111/53
f 49/107/49 52/110/52 9/9/9
f 9/9/9 52/110/52 54/112/54
f 9/9/9 54/112/54 50/108/50
f 55/113/55 53/111/53 56/114/56
f 53/111/53 55/113/55 52/110/52
f 52/110/52 55/113/55 57/115/57
f 52/110/52 57/115/57 54/112/54
f 58/116/58 56/117/56 59/118/59
f 56/117/56 58/116/58 55/119/55
f 55/119/55 58/116/58 60/120/60
f 55/119/55 60/120/60 57/121/57
f 61/122/61 59/118/59 62/123/62
f 59/118/59 61/122/61 58/116/58
f 58/116/58 61/122/61 63/124/63
f 58/116/58 63/124/63 60/120/60
f 64/125/64 62/123/62 65/126/65
f 62/123/62 64/125/64 61/122/61
f 61/122/61 64/125/64 66/127/66
f 61/122/61 66/127/66 63/124/63
f 67/128/67 65/126/65 68/129/68
f 65/126/65 67/128/67 64/125/64
f 64/125/64 67/128/67 69/130/69
f 64/125/64 69/130/69 66/127/66
f 10/10/10 68/129/68 8/8/8
f 68/129/68 10/10/10 67/128/67
f 67/128/67 10/10/10 51/109/51
f 67/128/67 51/109/51 69/130/69
f 69/130/69 51/109/51 31/131/31
f 69/130/69 31/131/31 1/132/1
f 30/133/30 51/109/51 50/108/50
f 51/109/51 30/133/30 31/131/31
f 28/134/28 50/108/50 54/112/54
f 50/108/50 28/134/28 30/133/30
f 29/135/29 54/112/54 57/115/57
f 54/112/54 29/135/29 28/134/28
f 32/136/32 57/121/57 60/120/60
f 57/121/57 32/136/32 29/137/29
f 33/138/33 60/120/60 63/124/63
f 60/120/60 33/138/33 32/136/32
f 3/139/3 63/124/63 66/127/66
f 63/124/63 3/139/3 33/138/33
f 1/132/1 66/127/66 69/130/69
f 66/127/66 1/132/1 3/139/3
f 56/140/56 70/141/70 71/142/71
f 70/141/70 56/140/56 53/143/53
f 70/141/70 53/143/53 72/144/72
f 53/143/53 49/145/49 72/144/72
f 49/145/49 73/146/73 72/144/72
f 73/146/73 49/145/49 8/147/8
f 73/146/73 8/147/8 74/148/74
f 8/147/8 68/149/68 74/148/74
f 59/150/59 56/151/56 71/152/71
f 59/150/59 71/152/71 75/153/75
f 59/150/59 75/153/75 62/154/62
f 62/154/62 75/153/75 76/155/76
f 62/154/62 76/155/76 65/156/65
f 65/156/65 76/155/76 77/157/77
f 65/156/65 77/157/77 68/149/68
f 68/149/68 77/157/77 74/148/74
f 12/12/12 14/14/14 78/158/78
f 14/14/14 79/159/79 78/158/78
f 79/159/79 80/160/80 78/158/78
f 80/160/80 79/159/79 81/161/81
f 80/160/80 81/161/81 82/162/82
f 81/161/81 83/163/83 82/162/82
f 82/162/82 83/163/83 84/164/84
f 82/162/82 84/164/84 85/165/85
f 85/165/85 84/164/84 86/166/86
f 85/165/85 86/166/86 87/167/87
f 87/167/87 86/166/86 88/168/88
f 87/167/87 88/168/88 89/169/89
f 89/169/89 88/168/88 11/170/11
f 89/169/89 11/170/11 13/171/13
f 90/172/90 91/173/91 92/174/92
f 92/174/92 91/173/91 93/175/93
f 94/176/94 95/177/95 92/174/92
f 95/177/95 96/178/96 92/174/92
f 96/178/96 90/172/90 92/174/92
f 80/160/80 91/173/91 90/172/90
f 91/173/91 80/160/80 82/162/82
f 91/173/91 82/162/82 85/165/85
f 91/173/91 85/165/85 93/175/93
f 78/158/78 80/160/80 90/172/90
f 78/158/78 90/172/90 96/178/96
f 12/12/12 78/158/78 96/178/96
f 12/12/12 96/178/96 95/177/95
f 13/13/13 12/12/12 95/177/95
f 13/13/13 95/177/95 94/176/94
f 72/179/72 73/180/73 81/161/81
f 72/179/72 81/161/81 79/159/79
f 70/181/70 72/179/72 79/159/79
f 70/181/70 79/159/79 14/14/14
f 71/182/71 70/181/70 14/14/14
f 71/182/71 14/14/14 11/11/11
f 73/180/73 83/163/83 81/161/81
f 83/163/83 73/180/73 74/183/74
f 83/163/83 74/183/74 77/184/77
f 83/163/83 77/184/77 84/164/84
f 94/185/94 92/174/92 97/186/97
f 97/186/97 92/174/92 98/187/98
f 98/187/98 92/174/92 93/175/93
f 87/167/87 98/187/98 93/175/93
f 87/167/87 93/175/93 85/165/85
f 89/169/89 97/186/97 98/187/98
f 89/169/89 98/187/98 87/167/87
f 13/171/13 94/185/94 97/186/97
f 13/171/13 97/186/97 89/169/89
f 76/188/76 86/166/86 84/164/84
f 76/188/76 84/164/84 77/184/77
f 75/189/75 88/168/88 86/166/86
f 75/189/75 86/166/86 76/188/76
f 71/190/71 11/170/11 88/168/88
f 71/190/71 88/168/88 75/189/75
