# Blender v2.77 (sub 0) OBJ File: ''
# www.blender.org
mtllib Arrow.mtl
o Arrow
v -0.156070 0.057060 9.378780
v 0.000000 0.121500 9.378780
v -0.156070 -0.057050 9.378780
v 0.000000 -0.121500 9.378780
v -0.125280 -0.031290 10.112830
v -0.125280 0.031300 10.112830
v 0.156070 -0.057050 9.378780
v 0.156070 0.057060 9.378780
v 0.125280 -0.031290 10.112830
v 0.125280 0.031300 10.112830
v 0.580770 -0.000000 9.740940
v 0.471610 -0.031290 9.752170
v 0.471610 0.031300 9.752170
v 0.305890 -0.031290 10.098790
v 0.305890 0.031300 10.098790
v 0.218420 0.031300 10.158640
v 0.218420 -0.031290 10.158640
v 0.352810 -0.031290 10.539150
v 0.352810 0.031300 10.539150
v 0.000000 -0.031290 10.539150
v 0.000000 0.031300 10.539150
v 0.000000 -0.121500 10.112830
v -0.218420 -0.031290 10.158640
v -0.352810 -0.031290 10.539150
v -0.305890 -0.031290 10.098790
v -0.218420 0.031300 10.158640
v 0.000000 -0.031290 11.061820
v 0.229690 -0.031290 11.061820
v 0.000000 -0.031291 11.689730
v -0.229690 -0.031290 11.061820
v -0.471610 -0.031290 9.752170
v -0.305890 0.031300 10.098790
v -0.580770 -0.000000 9.740940
v -0.471610 0.031300 9.752170
v -0.352810 0.031300 10.539150
v 0.000000 0.031300 11.061820
v -0.229690 0.031300 11.061820
v 0.000000 0.031299 11.689730
v 0.229690 0.031300 11.061820
v 0.000000 0.121500 10.112830
v -0.448140 -0.000000 10.539150
v -0.314250 -0.000000 11.061820
v -0.113230 -0.000001 11.632520
v 0.000000 -0.000001 11.814939
v 0.448140 -0.000000 10.539150
v 0.314260 -0.000000 11.061820
v 0.113230 -0.000001 11.632520
v -0.085210 -0.051600 -8.647300
v 0.000370 -0.107110 -8.647300
v -0.085200 -0.051600 0.149220
v 0.000370 -0.107110 0.149220
v 0.085940 -0.051600 -8.647300
v 0.085950 -0.051600 0.149220
v 0.085950 0.039400 0.149220
v 0.085940 0.039400 -8.647300
v 0.000370 0.094900 -8.647300
v 0.000370 0.094910 0.149220
v -0.085210 0.039400 -8.647300
v -0.085200 0.039400 0.149220
v -0.085200 -0.051600 4.807480
v 0.000370 -0.107110 4.807480
v -0.085200 -0.051600 9.599730
v 0.000370 -0.107110 9.599730
v 0.085950 -0.051600 4.807480
v 0.085950 -0.051600 9.599730
v 0.085950 0.039400 4.807480
v 0.085950 0.039400 9.599730
v 0.000370 0.094910 4.807480
v 0.000370 0.094910 9.599730
v -0.085200 0.039400 4.807480
v -0.085200 0.039400 9.599730
v 0.059730 0.000000 -8.946500
v 0.030000 -0.051500 -8.946500
v 0.000270 0.000000 -8.946500
v 0.030000 0.051490 -8.946500
v -0.029470 0.051490 -8.946500
v -0.059200 0.000000 -8.946500
v -0.029470 -0.051500 -8.946500
v -0.199320 0.109970 -7.815590
v -0.000950 -0.012420 -7.815590
v -0.000950 -0.012420 -7.964380
v -0.000950 -0.012420 -7.551480
v -0.283770 0.162060 -7.551480
v -0.288360 0.164900 -5.746580
v -0.442640 0.260080 -7.156960
v -0.000950 -0.012420 -5.746580
v -0.183650 0.100300 -5.509410
v -0.000950 -0.012410 -5.509410
v -0.075690 0.033700 -5.242400
v -0.000950 -0.012420 -5.242400
v -0.204300 0.101900 -7.815590
v -0.005920 -0.020480 -7.964380
v -0.005920 -0.020480 -7.815590
v -0.005920 -0.020480 -7.551480
v -0.288750 0.154000 -7.551480
v -0.005920 -0.020480 -5.746580
v -0.447620 0.252010 -7.156960
v -0.293330 0.156830 -5.746580
v -0.188630 0.092230 -5.509410
v -0.005920 -0.020480 -5.509410
v -0.080670 0.025630 -5.242400
v -0.005920 -0.020480 -5.242400
v -0.012080 -0.290930 -7.815590
v -0.009290 -0.057860 -7.815590
v -0.009290 -0.057860 -7.964370
v -0.009290 -0.057860 -7.551480
v -0.013270 -0.390150 -7.551480
v -0.013330 -0.395540 -5.746580
v -0.015500 -0.576810 -7.156960
v -0.009290 -0.057860 -5.746580
v -0.011860 -0.272520 -5.509410
v -0.009290 -0.057860 -5.509410
v -0.010340 -0.145680 -5.242400
v -0.009290 -0.057860 -5.242400
v -0.002600 -0.291050 -7.815590
v 0.000190 -0.057970 -7.964380
v 0.000190 -0.057970 -7.815590
v 0.000190 -0.057970 -7.551480
v -0.003790 -0.390270 -7.551480
v 0.000190 -0.057970 -5.746580
v -0.006020 -0.576920 -7.156960
v -0.003850 -0.395660 -5.746580
v -0.002380 -0.272630 -5.509410
v 0.000190 -0.057970 -5.509410
v -0.000860 -0.145800 -5.242400
v 0.000190 -0.057970 -5.242400
v 0.188710 0.113950 -7.815590
v 0.002210 -0.025850 -7.815590
v 0.002210 -0.025850 -7.964380
v 0.002210 -0.025850 -7.551480
v 0.268110 0.173470 -7.551480
v 0.272430 0.176700 -5.746580
v 0.417480 0.285430 -7.156960
v 0.002210 -0.025850 -5.746580
v 0.173980 0.102910 -5.509410
v 0.002210 -0.025850 -5.509410
v 0.072480 0.026830 -5.242400
v 0.002210 -0.025850 -5.242400
v 0.183030 0.121540 -7.815590
v -0.003480 -0.018270 -7.964380
v -0.003480 -0.018270 -7.815590
v -0.003480 -0.018270 -7.551480
v 0.262420 0.181050 -7.551480
v -0.003480 -0.018270 -5.746580
v 0.411790 0.293010 -7.156960
v 0.266740 0.184290 -5.746580
v 0.168290 0.110490 -5.509410
v -0.003480 -0.018270 -5.509410
v 0.066800 0.034410 -5.242400
v -0.003480 -0.018270 -5.242400
v 0.031510 0.054110 -8.750130
v -0.030980 0.054110 -8.750130
v 0.046140 0.079460 -8.647300
v -0.045610 0.079460 -8.647300
v -0.062220 0.000000 -8.750130
v -0.091480 0.000000 -8.647300
v -0.030980 -0.054110 -8.750130
v -0.045610 -0.079460 -8.647300
v 0.031510 -0.054110 -8.750130
v 0.046140 -0.079460 -8.647300
v 0.062750 0.000000 -8.750130
v 0.092020 0.000000 -8.647300
vt 0.9893 0.1333
vt 0.9893 0.1523
vt 0.9893 0.1333
vt 0.9893 0.1523
vt 0.8384 0.1367
vt 0.8384 0.1367
vt 0.9893 0.1714
vt 0.9893 0.1714
vt 0.8384 0.1684
vt 0.8384 0.1684
vt 0.9233 0.2500
vt 0.9214 0.2407
vt 0.9214 0.2407
vt 0.8413 0.2202
vt 0.8413 0.2202
vt 0.8301 0.1958
vt 0.8301 0.1958
vt 0.7583 0.2168
vt 0.7583 0.2168
vt 0.7583 0.1523
vt 0.7583 0.1523
vt 0.8462 0.1523
vt 0.8301 0.1093
vt 0.7583 0.0859
vt 0.8413 0.0869
vt 0.8301 0.1093
vt 0.6567 0.1528
vt 0.6567 0.1963
vt 0.5356 0.1538
vt 0.6567 0.1089
vt 0.9253 0.0571
vt 0.8413 0.0869
vt 0.9277 0.0439
vt 0.9253 0.0571
vt 0.7583 0.0859
vt 0.6567 0.1528
vt 0.6567 0.1089
vt 0.5356 0.1538
vt 0.6567 0.1963
vt 0.8462 0.1523
vt 0.7583 0.0644
vt 0.6562 0.0869
vt 0.5473 0.1299
vt 0.5010 0.1538
vt 0.7583 0.2344
vt 0.6562 0.2148
vt 0.5473 0.1777
vt 0.0054 1.5415
vt 0.0366 1.5415
vt 0.0054 0.0039
vt 0.0366 0.0039
vt 0.0679 1.5415
vt 0.0679 0.0039
vt 0.1309 0.0039
vt 0.1309 1.5415
vt 0.1621 1.5415
vt 0.1621 0.0039
vt 0.1934 1.5415
vt 0.1934 0.0039
vt 0.2456 0.0039
vt 0.2456 1.5415
vt 0.0757 0.4848
vt 0.0889 0.4785
vt 0.1020 0.4848
vt 0.1020 0.5107
vt 0.0757 0.5107
vt 0.0889 0.5171
vt 0.2554 1.5415
vt 0.2866 1.5415
vt 0.2554 0.8769
vt 0.2866 0.8769
vt 0.2554 0.0083
vt 0.3179 1.5415
vt 0.2866 0.0083
vt 0.3179 0.8769
vt 0.3179 0.0083
vt 0.3804 0.8769
vt 0.3804 1.5415
vt 0.3804 0.0083
vt 0.4116 1.5415
vt 0.4116 0.8769
vt 0.4116 0.0083
vt 0.4429 1.5415
vt 0.4429 0.8769
vt 0.4429 0.0083
vt 0.4951 0.8769
vt 0.4951 1.5415
vt 0.4951 0.0083
vt 1.8023 0.1211
vt 1.7764 0.1216
vt 1.7256 0.1220
vt 1.6748 0.1230
vt 1.6485 0.1235
vt 1.7002 0.1225
vt 1.7256 0.1220
vt 1.7505 0.1220
vt 0.8394 0.9609
vt 0.7656 0.9609
vt 0.7656 0.9976
vt 0.7656 0.8955
vt 0.8711 0.8955
vt 0.8731 0.4492
vt 0.9307 0.7978
vt 0.7656 0.4492
vt 0.8335 0.3906
vt 0.7656 0.3906
vt 0.7935 0.3247
vt 0.7656 0.3247
vt 0.8413 0.9609
vt 0.7671 0.9976
vt 0.7671 0.9609
vt 0.7671 0.8955
vt 0.8731 0.8955
vt 0.7671 0.4492
vt 0.9326 0.7978
vt 0.8745 0.4492
vt 0.8355 0.3906
vt 0.7671 0.3906
vt 0.7954 0.3247
vt 0.7671 0.3247
vt 0.8399 0.9600
vt 0.7661 0.9600
vt 0.7661 0.9966
vt 0.7661 0.8945
vt 0.8716 0.8945
vt 0.8731 0.4487
vt 0.9307 0.7969
vt 0.7661 0.4487
vt 0.8340 0.3901
vt 0.7661 0.3901
vt 0.7940 0.3242
vt 0.7661 0.3242
vt 0.8399 0.9600
vt 0.7661 0.9966
vt 0.7661 0.9600
vt 0.7661 0.8945
vt 0.8716 0.8945
vt 0.7661 0.4487
vt 0.9307 0.7969
vt 0.8731 0.4487
vt 0.8340 0.3901
vt 0.7661 0.3901
vt 0.7940 0.3242
vt 0.7661 0.3242
vt 0.6944 0.9609
vt 0.7642 0.9609
vt 0.7642 0.9976
vt 0.7642 0.8955
vt 0.6651 0.8955
vt 0.6631 0.4492
vt 0.6089 0.7978
vt 0.7642 0.4492
vt 0.7002 0.3906
vt 0.7642 0.3906
vt 0.7378 0.3247
vt 0.7642 0.3247
vt 0.6968 0.9609
vt 0.7666 0.9976
vt 0.7666 0.9609
vt 0.7666 0.8955
vt 0.6670 0.8955
vt 0.7666 0.4492
vt 0.6113 0.7978
vt 0.6656 0.4492
vt 0.7022 0.3906
vt 0.7666 0.3906
vt 0.7403 0.3247
vt 0.7666 0.3247
vt 1.6753 0.1665
vt 1.7012 0.1660
vt 1.6758 0.1889
vt 1.7012 0.1889
vt 1.7261 0.1655
vt 1.7266 0.1884
vt 1.7515 0.1650
vt 1.7520 0.1880
vt 1.7769 0.1645
vt 1.7774 0.1875
vt 1.8033 0.1640
vt 1.8282 0.1206
vt 1.8033 0.1870
vt 1.8292 0.1640
vt 1.8292 0.1865
vn -0.6759 0.4542 -0.5804
vn 0.0000 0.7896 -0.6136
vn -0.6760 -0.4542 -0.5804
vn -0.0000 -0.7896 -0.6136
vn -0.7078 -0.6782 -0.1978
vn -0.7078 0.6782 -0.1978
vn 0.6760 -0.4542 -0.5804
vn 0.6759 0.4542 -0.5804
vn 0.7078 -0.6782 -0.1978
vn 0.7078 0.6782 -0.1978
vn 0.8443 -0.0000 -0.5359
vn -0.3511 -0.6877 -0.6355
vn -0.3510 0.6877 -0.6355
vn -0.4842 -0.7704 -0.4148
vn -0.4842 0.7704 -0.4148
vn -0.0388 0.8399 -0.5413
vn -0.0388 -0.8399 -0.5413
vn 0.1626 -0.9861 0.0339
vn 0.1627 0.9861 0.0339
vn 0.0000 -0.9998 0.0190
vn 0.0000 0.9998 0.0190
vn -0.0000 -0.9950 0.1003
vn 0.0388 -0.8399 -0.5413
vn -0.1626 -0.9861 0.0339
vn 0.4842 -0.7704 -0.4148
vn 0.0388 0.8399 -0.5413
vn 0.0000 -1.0000 -0.0000
vn 0.1813 -0.9819 0.0551
vn -0.0000 -0.9830 0.1834
vn -0.1813 -0.9819 0.0551
vn 0.3511 -0.6877 -0.6355
vn 0.4842 0.7704 -0.4148
vn -0.8443 -0.0000 -0.5359
vn 0.3510 0.6877 -0.6355
vn -0.1627 0.9861 0.0339
vn 0.0000 1.0000 0.0000
vn -0.1813 0.9819 0.0551
vn -0.0000 0.9830 0.1834
vn 0.1813 0.9819 0.0551
vn -0.0000 0.9950 0.1003
vn -0.9810 -0.0000 0.1938
vn -0.9618 -0.0001 0.2738
vn -0.9213 -0.0001 0.3887
vn -0.0000 -0.0000 1.0000
vn 0.9810 -0.0000 0.1938
vn 0.9618 -0.0001 0.2738
vn 0.9213 -0.0001 0.3887
vn -0.6937 -0.3769 -0.6138
vn 0.0000 -0.7980 -0.6027
vn -0.8787 -0.4774 0.0000
vn 0.6937 -0.3769 -0.6138
vn 0.8787 -0.4774 -0.0000
vn 0.8787 0.4774 -0.0000
vn 0.6937 0.3769 -0.6138
vn 0.0000 0.7980 -0.6027
vn -0.6937 0.3769 -0.6138
vn -0.8787 0.4774 0.0000
vn 0.7879 0.0000 -0.6158
vn 0.3940 -0.6824 -0.6158
vn 0.0000 0.0000 -1.0000
vn 0.3940 0.6824 -0.6158
vn -0.3940 0.6824 -0.6158
vn -0.7879 0.0000 -0.6158
vn -0.3940 -0.6824 -0.6158
vn 0.5251 0.8511 0.0000
vn 0.5250 0.8511 -0.0000
vn 0.5251 0.8510 0.0000
vn -0.5250 -0.8511 0.0000
vn -0.9999 0.0120 -0.0000
vn 0.9999 -0.0120 0.0000
vn 0.5998 -0.8002 0.0000
vn 0.5998 -0.8001 0.0000
vn -0.5998 0.8001 0.0000
vn -0.5998 0.8002 0.0000
vn 0.4942 0.8559 -0.1522
vn -0.4942 0.8559 -0.1522
vn 0.4809 0.8330 -0.2738
vn -0.4809 0.8329 -0.2737
vn -0.9884 -0.0000 -0.1522
vn -0.9618 -0.0000 -0.2737
vn -0.4942 -0.8559 -0.1522
vn -0.4809 -0.8329 -0.2738
vn 0.4942 -0.8559 -0.1522
vn 0.4809 -0.8330 -0.2738
vn 0.9883 -0.0000 -0.1522
vn 0.9618 -0.0000 -0.2738
usemtl arrow
s 1
f 1/1/1 2/2/2 3/3/3
f 3/3/3 2/2/2 4/4/4
f 5/5/5 1/1/1 3/3/3
f 1/1/1 5/5/5 6/6/6
f 7/7/7 4/4/4 8/8/8
f 8/8/8 4/4/4 2/2/2
f 9/9/9 7/7/7 10/10/10
f 10/10/10 7/7/7 8/8/8
f 11/11/11 12/12/12 13/13/13
f 14/14/14 13/13/13 12/12/12
f 15/15/15 13/13/13 14/14/14
f 16/16/16 15/15/15 17/17/17
f 17/17/17 15/15/15 14/14/14
f 14/14/14 12/12/12 18/18/18
f 14/14/14 18/18/18 17/17/17
f 15/15/15 19/19/19 13/13/13
f 19/19/19 15/15/15 16/16/16
f 20/20/20 17/17/17 18/18/18
f 16/16/16 21/21/21 19/19/19
f 20/20/20 9/9/9 17/17/17
f 10/10/10 21/21/21 16/16/16
f 9/9/9 16/16/16 17/17/17
f 10/10/10 16/16/16 9/9/9
f 9/9/9 4/4/4 7/7/7
f 22/22/22 4/4/4 9/9/9
f 20/20/20 22/22/22 9/9/9
f 22/22/22 5/5/5 4/4/4
f 4/4/4 5/5/5 3/3/3
f 20/20/20 5/5/5 22/22/22
f 20/20/20 23/23/23 5/5/5
f 24/24/24 25/25/25 23/23/23
f 20/20/20 24/24/24 23/23/23
f 23/23/23 6/6/6 5/5/5
f 26/26/26 6/6/6 23/23/23
f 27/27/27 24/24/24 20/20/20
f 27/27/27 20/20/20 18/18/18
f 27/27/27 18/18/18 28/28/28
f 29/29/29 27/27/27 28/28/28
f 30/30/30 27/27/27 29/29/29
f 27/27/27 30/30/30 24/24/24
f 25/25/25 24/24/24 31/31/31
f 25/25/25 26/26/26 23/23/23
f 32/32/32 26/26/26 25/25/25
f 31/31/31 32/32/32 25/25/25
f 33/33/33 34/34/34 31/31/31
f 34/34/34 32/32/32 31/31/31
f 32/32/32 34/34/34 35/35/35
f 32/32/32 35/35/35 26/26/26
f 26/26/26 35/35/35 21/21/21
f 6/6/6 26/26/26 21/21/21
f 21/21/21 35/35/35 36/36/36
f 35/35/35 37/37/37 36/36/36
f 38/38/38 36/36/36 37/37/37
f 39/39/39 36/36/36 38/38/38
f 39/39/39 19/19/19 36/36/36
f 21/21/21 36/36/36 19/19/19
f 40/40/40 6/6/6 21/21/21
f 40/40/40 21/21/21 10/10/10
f 2/2/2 6/6/6 40/40/40
f 10/10/10 2/2/2 40/40/40
f 1/1/1 6/6/6 2/2/2
f 8/8/8 2/2/2 10/10/10
f 31/31/31 41/41/41 33/33/33
f 24/24/24 41/41/41 31/31/31
f 24/24/24 42/42/42 41/41/41
f 30/30/30 42/42/42 24/24/24
f 30/30/30 43/43/43 42/42/42
f 29/29/29 43/43/43 30/30/30
f 29/29/29 44/44/44 43/43/43
f 41/41/41 34/34/34 33/33/33
f 35/35/35 34/34/34 41/41/41
f 41/41/41 42/42/42 35/35/35
f 35/35/35 42/42/42 37/37/37
f 43/43/43 37/37/37 42/42/42
f 38/38/38 37/37/37 43/43/43
f 44/44/44 38/38/38 43/43/43
f 45/45/45 12/12/12 11/11/11
f 18/18/18 12/12/12 45/45/45
f 46/46/46 18/18/18 45/45/45
f 28/28/28 18/18/18 46/46/46
f 47/47/47 28/28/28 46/46/46
f 29/29/29 28/28/28 47/47/47
f 44/44/44 29/29/29 47/47/47
f 11/11/11 13/13/13 45/45/45
f 45/45/45 13/13/13 19/19/19
f 45/45/45 19/19/19 46/46/46
f 46/46/46 19/19/19 39/39/39
f 39/39/39 47/47/47 46/46/46
f 38/38/38 47/47/47 39/39/39
f 38/38/38 44/44/44 47/47/47
f 48/48/48 49/49/49 50/50/50
f 50/50/50 49/49/49 51/51/27
f 49/49/49 52/52/51 51/51/27
f 51/51/27 52/52/51 53/53/52
f 53/53/52 52/52/51 54/54/53
f 54/54/53 52/52/51 55/55/54
f 55/55/54 56/56/55 54/54/53
f 54/54/53 56/56/55 57/57/36
f 56/56/55 58/58/56 57/57/36
f 57/57/36 58/58/56 59/59/57
f 59/59/57 58/58/56 50/60/50
f 50/60/50 58/58/56 48/61/48
f 52/62/51 49/63/49 48/64/48
f 48/64/48 58/65/56 52/62/51
f 52/62/51 58/65/56 55/66/54
f 58/65/56 56/67/55 55/66/54
f 50/68/50 51/69/27 60/70/50
f 60/70/50 51/69/27 61/71/27
f 60/70/50 61/71/27 62/72/50
f 51/69/27 53/73/52 61/71/27
f 62/72/50 61/71/27 63/74/27
f 61/71/27 64/75/52 63/74/27
f 61/71/27 53/73/52 64/75/52
f 63/74/27 64/75/52 65/76/52
f 64/75/52 53/73/52 66/77/53
f 66/77/53 65/76/52 64/75/52
f 66/77/53 53/73/52 54/78/53
f 67/79/53 65/76/52 66/77/53
f 54/78/53 57/80/36 66/77/53
f 66/77/53 68/81/36 67/79/53
f 66/77/53 57/80/36 68/81/36
f 67/79/53 68/81/36 69/82/36
f 57/80/36 59/83/57 68/81/36
f 68/81/36 70/84/57 69/82/36
f 68/81/36 59/83/57 70/84/57
f 69/82/36 70/84/57 71/85/57
f 70/84/57 59/83/57 60/86/50
f 60/86/50 71/85/57 70/84/57
f 60/86/50 59/83/57 50/87/50
f 62/88/50 71/85/57 60/86/50
f 72/89/58 73/90/59 74/91/60
f 75/92/61 72/93/58 74/91/60
f 76/94/62 75/92/61 74/91/60
f 77/95/63 76/94/62 74/91/60
f 78/96/64 77/95/63 74/91/60
f 73/90/59 78/96/64 74/91/60
f 79/97/65 80/98/65 81/99/65
f 79/97/65 82/100/65 80/98/65
f 83/101/65 82/100/65 79/97/65
f 82/100/65 83/101/65 84/102/65
f 85/103/65 84/102/65 83/101/65
f 86/104/65 82/100/65 84/102/65
f 84/102/65 87/105/65 86/104/65
f 86/104/65 87/105/65 88/106/66
f 89/107/67 88/106/66 87/105/65
f 90/108/67 88/106/66 89/107/67
f 91/109/68 92/110/68 93/111/68
f 94/112/68 91/109/68 93/111/68
f 95/113/68 91/109/68 94/112/68
f 94/112/68 96/114/68 95/113/68
f 95/113/68 96/114/68 97/115/68
f 97/115/68 96/114/68 98/116/68
f 98/116/68 96/114/68 99/117/68
f 99/117/68 96/114/68 100/118/68
f 99/117/68 100/118/68 101/119/68
f 101/119/68 100/118/68 102/120/68
f 103/121/69 104/122/69 105/123/69
f 103/121/69 106/124/69 104/122/69
f 107/125/69 106/124/69 103/121/69
f 106/124/69 107/125/69 108/126/69
f 109/127/69 108/126/69 107/125/69
f 110/128/69 106/124/69 108/126/69
f 108/126/69 111/129/69 110/128/69
f 110/128/69 111/129/69 112/130/69
f 113/131/69 112/130/69 111/129/69
f 114/132/69 112/130/69 113/131/69
f 115/133/70 116/134/70 117/135/70
f 118/136/70 115/133/70 117/135/70
f 119/137/70 115/133/70 118/136/70
f 118/136/70 120/138/70 119/137/70
f 119/137/70 120/138/70 121/139/70
f 121/139/70 120/138/70 122/140/70
f 122/140/70 120/138/70 123/141/70
f 123/141/70 120/138/70 124/142/70
f 123/141/70 124/142/70 125/143/70
f 125/143/70 124/142/70 126/144/70
f 127/145/71 128/146/71 129/147/71
f 127/145/71 130/148/71 128/146/71
f 131/149/71 130/148/71 127/145/71
f 130/148/71 131/149/71 132/150/71
f 133/151/71 132/150/71 131/149/71
f 134/152/71 130/148/71 132/150/71
f 132/150/71 135/153/71 134/152/71
f 134/152/71 135/153/71 136/154/72
f 137/155/72 136/154/72 135/153/71
f 138/156/72 136/154/72 137/155/72
f 139/157/73 140/158/73 141/159/73
f 142/160/74 139/157/73 141/159/73
f 143/161/74 139/157/73 142/160/74
f 142/160/74 144/162/74 143/161/74
f 143/161/74 144/162/74 145/163/74
f 145/163/74 144/162/74 146/164/73
f 146/164/73 144/162/74 147/165/74
f 147/165/74 144/162/74 148/166/74
f 147/165/74 148/166/74 149/167/74
f 149/167/74 148/166/74 150/168/74
f 75/92/61 76/94/62 151/169/75
f 151/169/75 76/94/62 152/170/76
f 151/169/75 152/170/76 153/171/77
f 76/94/62 77/95/63 152/170/76
f 153/171/77 152/170/76 154/172/78
f 152/170/76 77/95/63 155/173/79
f 152/170/76 155/173/79 154/172/78
f 77/95/63 78/96/64 155/173/79
f 154/172/78 155/173/79 156/174/80
f 155/173/79 78/96/64 157/175/81
f 155/173/79 157/175/81 156/174/80
f 78/96/64 73/90/59 157/175/81
f 156/174/80 157/175/81 158/176/82
f 157/175/81 73/90/59 159/177/83
f 157/175/81 159/177/83 158/176/82
f 73/90/59 72/89/58 159/177/83
f 158/176/82 159/177/83 160/178/84
f 159/177/83 72/89/58 161/179/85
f 159/177/83 161/179/85 160/178/84
f 72/89/58 75/180/61 161/179/85
f 160/178/84 161/179/85 162/181/86
f 161/179/85 75/180/61 151/182/75
f 161/179/85 151/182/75 162/181/86
f 162/181/86 151/182/75 153/183/77
