# Blender v2.77 (sub 0) OBJ File: ''
# www.blender.org
mtllib rocketlauncher_shell2.mtl
o rocketlauncher_shell
v 0.000000 0.638827 4.864056
v 0.000000 0.638827 5.301268
v -0.452700 0.451729 4.864056
v -0.452700 0.451729 5.301268
v 0.000000 -0.638826 6.450089
v 0.603000 -1.308387 6.450089
v 0.500750 -1.350646 6.450089
v 0.442050 0.441102 0.710215
v 0.760300 -0.000000 0.809846
v 0.537600 0.536447 0.809846
v 0.000000 -1.156663 -1.315023
v 0.819650 -0.817892 -2.582047
v 0.000000 -1.156663 -2.582047
v 0.819650 -0.817892 -1.315023
v 0.452700 0.451729 6.450089
v 0.000000 0.638827 6.450089
v 0.452700 0.451729 5.301268
v -0.452700 0.451729 6.450089
v -0.640200 -0.000000 6.450089
v -0.640200 -0.000000 5.301268
v -0.452700 -0.451729 6.450089
v 0.000000 -0.638826 5.301268
v -0.452700 -0.451729 5.301268
v 0.452700 -0.451729 6.450089
v 0.640200 -0.000000 6.450089
v 0.640200 -0.000000 5.301268
v 0.452700 -0.451729 5.301268
v 0.452700 -0.451729 4.864105
v 0.000000 -0.638826 4.864105
v 0.640200 -0.000000 4.864105
v 0.452700 0.451729 4.864056
v -0.452700 -0.451729 4.864056
v -0.640200 -0.000000 4.864056
v 0.000000 -0.000000 6.450089
v -0.500750 1.350646 6.450089
v -0.603000 1.308387 6.450089
v -0.603000 1.308387 5.681221
v -0.500750 1.350646 5.681221
v -1.353550 -0.499675 6.450089
v -1.311200 -0.601706 6.450089
v -1.311200 -0.601706 5.681221
v -1.353550 -0.499675 5.681221
v 0.603000 -1.308387 5.681221
v 0.500750 -1.350646 5.681221
v 1.353550 0.499676 6.450089
v 1.311200 0.601707 6.450089
v 1.311200 0.601707 5.681221
v 1.353550 0.499676 5.681221
v 0.625150 -0.000000 0.710215
v 0.760300 -0.000000 4.779660
v 0.537600 0.536447 4.779660
v 0.537600 -0.536447 0.809846
v 0.442050 -0.441102 0.710215
v 0.537600 -0.536446 4.779660
v 0.000000 -0.758669 0.809846
v 0.000000 -0.623809 0.710215
v 0.000000 -0.758669 4.779660
v -0.537600 -0.536447 0.809846
v -0.442050 -0.441102 0.710215
v -0.537600 -0.536446 4.779660
v -0.760300 -0.000000 0.809846
v -0.625150 -0.000000 0.710215
v -0.760300 -0.000000 4.779660
v -0.537600 0.536447 0.809846
v -0.442050 0.441102 0.710215
v -0.537600 0.536447 4.779660
v 0.000000 0.758669 0.809846
v 0.000000 0.623809 0.710215
v 0.000000 0.758669 4.779660
v 0.442050 -0.441102 -0.318860
v 0.000000 -0.623809 -0.318860
v 0.625150 0.000000 -0.318860
v 0.442050 0.441102 -0.318860
v 0.000000 0.623809 -0.318860
v -0.442050 -0.441102 -0.318860
v -0.625150 0.000000 -0.318860
v -0.442050 0.441102 -0.318860
v 1.159150 0.000000 -2.582047
v 1.159150 0.000000 -1.315023
v 0.819650 0.817891 -2.582047
v 0.819650 0.817892 -1.315023
v 0.000000 1.156663 -2.582047
v 0.000000 1.156663 -1.315023
v -0.819650 0.817892 -1.315023
v -0.819650 0.817891 -2.582047
v -1.159150 0.000000 -1.315023
v -1.159150 0.000000 -2.582047
v -0.819650 -0.817892 -1.315023
v -0.819650 -0.817892 -2.582047
v 0.167800 0.167440 -6.450089
v 0.000000 0.236791 -6.450089
v 0.000000 0.000000 -6.450089
v -0.167800 0.167440 -6.450089
v 0.000000 -0.236791 -6.450089
v 0.167800 -0.167440 -6.450089
v 0.237300 0.000000 -6.450089
v -0.167800 -0.167440 -6.450089
v -0.237300 0.000000 -6.450089
vt 0.0000 0.0000
vt 1.0000 0.0000
vt 1.0000 1.0000
vt 0.0000 0.0000
vt 1.0000 0.0000
vt 0.0000 0.0000
vt 1.0000 0.0000
vt 1.0000 1.0000
vt 0.0000 0.0000
vt 1.0000 0.0000
vt 1.0000 1.0000
vt 0.0000 0.0000
vt 1.0000 0.0000
vt 1.0000 1.0000
vt 0.0000 0.0000
vt 1.0000 0.0000
vt 1.0000 1.0000
vt 0.0000 0.0000
vt 1.0000 0.0000
vt 1.0000 1.0000
vt 1.0000 1.0000
vt 0.0000 0.0000
vt 1.0000 0.0000
vt 1.0000 1.0000
vt 1.0000 0.0000
vt 1.0000 1.0000
vt 0.0000 0.0000
vt 1.0000 0.0000
vt 1.0000 1.0000
vt 1.0000 0.0000
vt 1.0000 1.0000
vt 0.0000 0.0000
vt 1.0000 0.0000
vt 1.0000 1.0000
vt 1.0000 0.0000
vt 1.0000 1.0000
vt 0.0000 0.0000
vt 1.0000 0.0000
vt 1.0000 1.0000
vt 1.0000 0.0000
vt 1.0000 1.0000
vt 0.0000 0.0000
vt 1.0000 0.0000
vt 0.0000 0.0000
vt 1.0000 1.0000
vt 0.0000 0.0000
vt 1.0000 0.0000
vt 0.0000 0.0000
vt 1.0000 0.0000
vt 0.0000 0.0000
vt 1.0000 0.0000
vt 1.0000 1.0000
vt 1.0000 0.0000
vt 0.0000 0.0000
vt 1.0000 1.0000
vt 1.0000 0.0000
vt 0.0000 0.0000
vt 0.0000 0.0000
vt 1.0000 0.0000
vt 1.0000 1.0000
vt 0.0000 0.0000
vt 1.0000 0.0000
vt 1.0000 0.0000
vt 0.0000 0.0000
vt 1.0000 0.0000
vt 0.0000 0.0000
vt 1.0000 0.0000
vt 1.0000 1.0000
vt 1.0000 0.0000
vt 1.0000 1.0000
vt 0.0000 0.0000
vt 1.0000 0.0000
vt 1.0000 1.0000
vt 1.0000 0.0000
vt 1.0000 1.0000
vt 0.0000 0.0000
vt 1.0000 1.0000
vt 1.0000 0.0000
vt 1.0000 1.0000
vt 0.0000 0.0000
vt 1.0000 0.0000
vt 1.0000 1.0000
vt 1.0000 0.0000
vt 1.0000 1.0000
vt 1.0000 1.0000
vt 1.0000 1.0000
vt 1.0000 0.0000
vt 1.0000 0.0000
vt 1.0000 1.0000
vt 1.0000 1.0000
vt 1.0000 0.0000
vt 1.0000 0.0000
vt 1.0000 0.0000
vt 1.0000 1.0000
vt 1.0000 0.0000
vt 1.0000 0.0000
vt 1.0000 1.0000
vt 1.0000 1.0000
vt 1.0000 0.0000
vt 1.0000 0.0000
vt 0.0000 0.0000
vt 1.0000 0.0000
vt 1.0000 1.0000
vt 0.0000 0.0000
vt 1.0000 1.0000
vt 1.0000 0.0000
vt 1.0000 1.0000
vt 0.0000 0.0000
vt 1.0000 0.0000
vt 1.0000 1.0000
vt 0.0000 0.0000
vt 1.0000 0.0000
vt 1.0000 1.0000
vt 1.0000 1.0000
vt 1.0000 0.0000
vt 0.0000 0.0000
vt 1.0000 0.0000
vt 1.0000 1.0000
vt 0.0000 0.0000
vt 1.0000 0.0000
vt 1.0000 1.0000
vt 1.0000 1.0000
vt 1.0000 0.0000
vt 0.0000 0.0000
vt 1.0000 0.0000
vt 1.0000 1.0000
vt 0.0000 0.0000
vt 1.0000 0.0000
vt 1.0000 1.0000
vt 1.0000 1.0000
vt 1.0000 0.0000
vt 0.0000 0.0000
vt 1.0000 0.0000
vt 1.0000 1.0000
vt 0.0000 0.0000
vt 1.0000 0.0000
vt 1.0000 1.0000
vt 1.0000 1.0000
vt 1.0000 0.0000
vt 0.0000 0.0000
vt 1.0000 0.0000
vt 1.0000 1.0000
vt 0.0000 0.0000
vt 1.0000 0.0000
vt 1.0000 1.0000
vt 1.0000 1.0000
vt 1.0000 0.0000
vt 0.0000 0.0000
vt 1.0000 0.0000
vt 1.0000 1.0000
vt 0.0000 0.0000
vt 1.0000 0.0000
vt 1.0000 1.0000
vt 1.0000 1.0000
vt 1.0000 0.0000
vt 1.0000 0.0000
vt 1.0000 1.0000
vt 0.0000 0.0000
vt 1.0000 0.0000
vt 1.0000 1.0000
vt 1.0000 0.0000
vt 0.0000 0.0000
vt 1.0000 0.0000
vt 1.0000 1.0000
vt 0.0000 0.0000
vt 0.0000 0.0000
vt 0.0000 0.0000
vt 1.0000 1.0000
vt 0.0000 0.0000
vt 0.0000 0.0000
vt 0.0000 0.0000
vt 0.0000 0.0000
vt 0.0000 0.0000
vt 0.0000 0.0000
vt 0.0000 0.0000
vt 0.0000 0.0000
vt 1.0000 0.0000
vt 0.0000 0.0000
vt 1.0000 0.0000
vt 1.0000 1.0000
vt 0.0000 0.0000
vt 1.0000 1.0000
vt 1.0000 0.0000
vt 0.0000 0.0000
vt 1.0000 1.0000
vt 1.0000 0.0000
vt 1.0000 1.0000
vt 1.0000 0.0000
vt 1.0000 1.0000
vt 1.0000 0.0000
vt 1.0000 1.0000
vt 1.0000 0.0000
vt 1.0000 0.0000
vt 1.0000 1.0000
vt 0.0000 0.0000
vt 1.0000 0.0000
vt 0.0000 0.0000
vt 1.0000 0.0000
vt 0.0000 0.0000
vt 1.0000 1.0000
vt 1.0000 0.0000
vt 1.0000 1.0000
vt 0.0000 0.0000
vt 1.0000 0.0000
vt 0.0000 0.0000
vt 1.0000 1.0000
vt 1.0000 0.0000
vt 1.0000 1.0000
vt 0.0000 0.0000
vt 1.0000 1.0000
vt 1.0000 0.0000
vt 1.0000 1.0000
vt 0.0000 0.0000
vt 1.0000 1.0000
vt 1.0000 0.0000
vt 1.0000 1.0000
vt 0.0000 0.0000
vt 1.0000 1.0000
vt 0.0000 0.0000
vt 1.0000 0.0000
vt 1.0000 1.0000
vt 0.0000 0.0000
vt 1.0000 1.0000
vt 0.0000 0.0000
vt 1.0000 0.0000
vt 0.0000 0.0000
vt 1.0000 0.0000
vt 0.0000 0.0000
vt 1.0000 0.0000
vt 1.0000 1.0000
vt 0.0000 0.0000
vt 1.0000 0.0000
vt 1.0000 0.0000
vt 0.0000 0.0000
vt 1.0000 1.0000
vt 1.0000 0.0000
vt 1.0000 1.0000
vt 0.0000 0.0000
vt 1.0000 1.0000
vt 0.0000 0.0000
vt 1.0000 1.0000
vt 1.0000 0.0000
vt 0.0000 0.0000
vt 0.0000 0.0000
vt 1.0000 0.0000
vt 1.0000 0.0000
vt 1.0000 1.0000
vt 0.0000 0.0000
vt 1.0000 1.0000
vt 0.0000 0.0000
vt 1.0000 0.0000
vt 1.0000 0.0000
vt 1.0000 0.0000
vt 1.0000 0.0000
vt 0.0000 0.0000
vt 0.0000 0.0000
vn 0.0307 -0.8315 -0.5547
vn -0.1736 -0.9442 0.2799
vn 0.6090 -0.5668 -0.5549
vn 0.8438 -0.5294 0.0885
vn 0.4704 0.5880 -0.6580
vn -0.7632 0.4196 -0.4915
vn 0.2020 0.6945 -0.6905
vn -0.6142 -0.5725 0.5431
vn -0.9238 -0.0161 0.3825
vn -0.6415 -0.6651 0.3823
vn 0.0001 0.9622 -0.2724
vn -0.7031 0.7024 0.1110
vn 0.0000 0.9967 0.0813
vn -0.6859 0.6934 -0.2208
vn -0.0570 -0.5177 -0.8537
vn -0.4705 -0.5879 -0.6580
vn -0.5282 -0.8445 0.0881
vn 0.5173 -0.0570 -0.8539
vn 0.5871 -0.4714 -0.6581
vn 0.9439 -0.1742 0.2805
vn 0.0570 0.5177 -0.8537
vn 0.1736 0.9442 0.2799
vn 0.5282 0.8446 0.0881
vn -0.5173 0.0570 -0.8539
vn -0.5871 0.4715 -0.6581
vn -0.9439 0.1742 0.2805
vn -0.8438 0.5294 0.0885
vn -0.6091 0.5668 -0.5547
vn -0.0306 0.8317 -0.5544
vn -0.8312 -0.0307 -0.5552
vn -0.5655 -0.6101 -0.5550
vn 0.5655 0.6101 -0.5550
vn 0.8310 0.0307 -0.5554
vn -0.0000 0.0000 -1.0000
vn -0.2018 -0.6946 -0.6905
vn 0.7632 -0.4195 -0.4915
vn 0.7290 -0.4492 0.5164
vn -0.2755 -0.9048 0.3248
vn 0.6947 -0.2022 -0.6903
vn 0.4192 0.7633 -0.4916
vn 0.4488 0.7291 0.5167
vn 0.9046 -0.2758 0.3250
vn -0.7290 0.4492 0.5164
vn 0.2755 0.9048 0.3248
vn -0.6947 0.2022 -0.6903
vn -0.4192 -0.7633 -0.4916
vn -0.4488 -0.7291 0.5167
vn -0.9046 0.2758 0.3250
vn -0.8387 0.0304 0.5437
vn -0.9207 0.0168 -0.3899
vn -0.6626 -0.6396 -0.3898
vn -0.6642 0.6423 0.3823
vn -0.5712 0.6154 0.5431
vn -0.6387 0.6635 -0.3897
vn -0.0161 0.9239 0.3822
vn 0.0304 0.8393 0.5429
vn 0.0169 0.9209 -0.3895
vn 0.6415 0.6651 0.3823
vn 0.6141 0.5725 0.5432
vn 0.6626 0.6396 -0.3898
vn 0.9238 0.0161 0.3825
vn 0.8387 -0.0304 0.5437
vn 0.9207 -0.0168 -0.3900
vn 0.6642 -0.6423 0.3823
vn 0.5712 -0.6154 0.5431
vn 0.6387 -0.6634 -0.3898
vn 0.0161 -0.9239 0.3822
vn -0.0304 -0.8393 0.5429
vn -0.0168 -0.9208 -0.3897
vn -0.6849 0.6763 -0.2711
vn -0.0571 0.9697 -0.2377
vn -0.9624 -0.0069 -0.2714
vn -0.6751 -0.6861 -0.2711
vn 0.0805 -0.9455 -0.3155
vn 0.5853 0.7649 -0.2690
vn 0.9548 0.1260 -0.2693
vn 0.7639 -0.5866 -0.2690
vn -0.9938 -0.0012 0.1111
vn -0.9753 0.0047 -0.2209
vn -0.7014 -0.7041 0.1110
vn -0.6925 -0.6868 -0.2208
vn -0.0000 -0.9904 0.1381
vn 0.0000 -0.9859 -0.1675
vn 0.6925 -0.6868 -0.2208
vn 0.7014 -0.7041 0.1110
vn 0.9753 0.0047 -0.2209
vn 0.9938 -0.0012 0.1111
vn 0.6859 0.6934 -0.2208
vn 0.7031 0.7024 0.1110
vn -0.4506 -0.5232 0.7233
vn -0.0000 -0.6512 0.7589
vn -0.0000 0.0000 1.0000
vn 0.4506 -0.5233 0.7233
vn 0.0001 0.7484 0.6633
vn -0.5223 0.4514 0.7235
vn -0.6886 -0.0507 0.7233
vn 0.5224 0.4515 0.7233
vn 0.6887 -0.0507 0.7233
usemtl rocketlauncher_shell_rocket_launcher_d.dds
s 1
f 1/1/1 2/2/2 3/3/3
f 2/4/2 4/5/4 3/3/3
f 5/6/5 6/7/6 7/8/7
f 8/9/8 9/10/9 10/11/10
f 11/12/11 12/13/12 13/14/13
f 12/15/12 11/16/11 14/17/14
f 15/18/15 16/19/16 2/20/2
f 15/18/15 2/2/2 17/21/17
f 18/22/18 19/23/19 20/24/20
f 18/22/18 20/25/20 4/26/4
f 21/27/21 5/28/5 22/29/22
f 21/27/21 22/30/22 23/31/23
f 24/32/24 25/33/25 26/34/26
f 24/32/24 26/35/26 27/36/27
f 22/37/22 28/38/28 29/39/29
f 22/37/22 27/40/27 28/41/28
f 27/42/27 30/43/30 28/41/28
f 30/44/30 27/40/27 26/34/26
f 30/44/30 26/35/26 31/45/31
f 26/46/26 17/47/17 31/45/31
f 17/48/17 1/49/1 31/45/31
f 1/1/1 17/47/17 2/20/2
f 23/50/23 22/30/22 29/39/29
f 23/50/23 29/51/29 32/52/32
f 23/50/23 32/53/32 20/24/20
f 20/54/20 32/53/32 33/55/33
f 20/54/20 33/56/33 4/26/4
f 4/57/4 33/56/33 3/3/3
f 16/58/16 15/59/15 34/60/34
f 18/22/18 16/19/16 34/60/34
f 19/61/19 18/62/18 34/60/34
f 21/27/21 19/23/19 34/60/34
f 5/6/5 21/63/21 34/60/34
f 24/32/24 5/28/5 34/60/34
f 25/64/25 24/65/24 34/60/34
f 15/18/15 25/33/25 34/60/34
f 35/66/35 36/67/36 37/68/37
f 35/66/35 37/69/37 38/70/38
f 39/71/39 40/72/40 41/73/41
f 39/71/39 41/74/41 42/75/42
f 7/76/7 6/7/6 43/77/43
f 7/76/7 43/78/43 44/79/44
f 45/80/45 46/81/46 47/82/47
f 45/80/45 47/83/47 48/84/48
f 16/58/16 18/62/18 36/85/36
f 16/58/16 36/67/36 35/86/35
f 18/22/18 4/5/4 37/68/37
f 18/22/18 37/69/37 36/85/36
f 4/57/4 2/2/2 38/70/38
f 4/57/4 38/87/38 37/68/37
f 2/4/2 16/19/16 35/86/35
f 2/4/2 35/88/35 38/70/38
f 19/61/19 21/63/21 40/89/40
f 19/61/19 40/72/40 39/90/39
f 21/27/21 23/91/23 41/73/41
f 21/27/21 41/74/41 40/89/40
f 23/50/23 20/25/20 42/75/42
f 23/50/23 42/92/42 41/73/41
f 20/54/20 19/23/19 39/90/39
f 20/54/20 39/93/39 42/75/42
f 5/6/5 24/65/24 6/94/6
f 24/32/24 27/40/27 43/77/43
f 24/32/24 43/78/43 6/94/6
f 27/42/27 22/30/22 44/79/44
f 27/42/27 44/95/44 43/77/43
f 22/37/22 5/28/5 7/8/7
f 22/37/22 7/96/7 44/79/44
f 25/64/25 15/59/15 46/97/46
f 25/64/25 46/81/46 45/98/45
f 15/18/15 17/47/17 47/82/47
f 15/18/15 47/83/47 46/97/46
f 17/48/17 26/35/26 48/84/48
f 17/48/17 48/99/48 47/82/47
f 26/46/26 25/33/25 45/98/45
f 26/46/26 45/100/45 48/84/48
f 9/101/9 8/102/8 49/103/49
f 10/104/10 9/10/9 50/105/50
f 10/104/10 50/106/50 51/107/51
f 52/108/52 49/109/49 53/110/53
f 49/111/49 52/112/52 9/113/9
f 9/101/9 52/112/52 54/114/54
f 9/101/9 54/115/54 50/105/50
f 55/116/55 53/117/53 56/118/56
f 53/119/53 55/120/55 52/121/52
f 52/108/52 55/120/55 57/122/57
f 52/108/52 57/123/57 54/114/54
f 58/124/58 56/125/56 59/126/59
f 56/127/56 58/128/58 55/129/55
f 55/116/55 58/128/58 60/130/60
f 55/116/55 60/131/60 57/122/57
f 61/132/61 59/133/59 62/134/62
f 59/135/59 61/136/61 58/137/58
f 58/124/58 61/136/61 63/138/63
f 58/124/58 63/139/63 60/130/60
f 64/140/64 62/141/62 65/142/65
f 62/143/62 64/144/64 61/145/61
f 61/132/61 64/144/64 66/146/66
f 61/132/61 66/147/66 63/138/63
f 67/148/67 65/149/65 68/150/68
f 65/151/65 67/152/67 64/153/64
f 64/140/64 67/152/67 69/154/69
f 64/140/64 69/155/69 66/146/66
f 10/104/10 68/156/68 8/157/8
f 68/158/68 10/159/10 67/160/67
f 67/148/67 10/159/10 51/107/51
f 67/148/67 51/161/51 69/154/69
f 69/162/69 51/161/51 31/45/31
f 69/162/69 31/163/31 1/164/1
f 30/44/30 51/161/51 50/105/50
f 51/165/51 30/43/30 31/45/31
f 28/166/28 50/106/50 54/114/54
f 50/167/50 28/38/28 30/168/30
f 29/169/29 54/115/54 57/122/57
f 54/170/54 29/51/29 28/41/28
f 32/171/32 57/123/57 60/130/60
f 57/172/57 32/53/32 29/39/29
f 33/173/33 60/131/60 63/138/63
f 60/174/60 33/56/33 32/52/32
f 3/175/3 63/139/63 66/146/66
f 63/176/63 3/177/3 33/55/33
f 1/1/1 66/147/66 69/154/69
f 66/178/66 1/49/1 3/3/3
f 56/127/56 70/179/70 71/180/71
f 70/181/70 56/125/56 53/110/53
f 70/181/70 53/117/53 72/182/72
f 53/119/53 49/109/49 72/182/72
f 49/111/49 73/183/73 72/182/72
f 73/184/73 49/109/49 8/157/8
f 73/184/73 8/102/8 74/185/74
f 8/9/8 68/156/68 74/185/74
f 59/135/59 56/125/56 71/180/71
f 59/135/59 71/186/71 75/187/75
f 59/135/59 75/188/75 62/134/62
f 62/143/62 75/188/75 76/189/76
f 62/143/62 76/190/76 65/142/65
f 65/151/65 76/190/76 77/191/77
f 65/151/65 77/192/77 68/150/68
f 68/158/68 77/192/77 74/185/74
f 12/15/12 14/193/14 78/194/78
f 14/195/14 79/196/79 78/194/78
f 79/197/79 80/198/80 78/194/78
f 80/199/80 79/196/79 81/200/81
f 80/199/80 81/201/81 82/202/82
f 81/203/81 83/204/83 82/202/82
f 82/205/82 83/204/83 84/206/84
f 82/205/82 84/207/84 85/208/85
f 85/209/85 84/207/84 86/210/86
f 85/209/85 86/211/86 87/212/87
f 87/213/87 86/211/86 88/214/88
f 87/213/87 88/215/88 89/216/89
f 89/217/89 88/215/88 11/218/11
f 89/217/89 11/16/11 13/14/13
f 90/219/90 91/220/91 92/221/92
f 92/222/92 91/220/91 93/223/93
f 94/224/94 95/225/95 92/221/92
f 95/226/95 96/227/96 92/221/92
f 96/228/96 90/229/90 92/221/92
f 80/199/80 91/220/91 90/230/90
f 91/231/91 80/198/80 82/202/82
f 91/231/91 82/232/82 85/208/85
f 91/231/91 85/233/85 93/223/93
f 78/234/78 80/198/80 90/230/90
f 78/234/78 90/229/90 96/235/96
f 12/15/12 78/236/78 96/235/96
f 12/15/12 96/227/96 95/237/95
f 13/238/13 12/13/12 95/237/95
f 13/238/13 95/225/95 94/239/94
f 72/240/72 73/183/73 81/200/81
f 72/240/72 81/201/81 79/241/79
f 70/181/70 72/242/72 79/241/79
f 70/181/70 79/196/79 14/17/14
f 71/243/71 70/179/70 14/17/14
f 71/243/71 14/193/14 11/218/11
f 73/184/73 83/204/83 81/200/81
f 83/244/83 73/183/73 74/185/74
f 83/244/83 74/245/74 77/191/77
f 83/244/83 77/192/77 84/206/84
f 94/224/94 92/246/92 97/247/97
f 97/248/97 92/246/92 98/249/98
f 98/250/98 92/246/92 93/223/93
f 87/213/87 98/251/98 93/223/93
f 87/213/87 93/252/93 85/208/85
f 89/217/89 97/253/97 98/249/98
f 89/217/89 98/251/98 87/212/87
f 13/238/13 94/254/94 97/247/97
f 13/238/13 97/253/97 89/216/89
f 76/255/76 86/211/86 84/206/84
f 76/255/76 84/207/84 77/191/77
f 75/256/75 88/215/88 86/210/86
f 75/256/75 86/211/86 76/189/76
f 71/243/71 11/16/11 88/214/88
f 71/243/71 88/215/88 75/187/75
